# xmcd CD database file
#
# Track frame offsets:
#	150
#	23711
#	32300
#	41647
#	51734
#	57032
#	71256
#	92632
#	113708
#	132592
#	161688
#	184100
#	205215
#	223090
#	242668
#	261282
#	273691
#	280708
#	325548
#
# Disc length: 4416 seconds
#
# Revision: 0
# Processed by: cddbd v1.5.1PL2 Copyright (c) Steve Scherf et al.
# Submitted via: CDex 1.51
#
DISCID=16113e13
DTITLE=Loren Connors - Night Through
DYEAR=1900
DGENRE=Blues
TTITLE0=Betty Mae
TTITLE1=Night Through
TTITLE2=Blight
TTITLE3=Eviction
TTITLE4=Exile
TTITLE5=The End, The Afternoon, The Light
TTITLE6=The End, The Afternoon, The Light pt.2
TTITLE7=A Selke's Air
TTITLE8=Adonais
TTITLE9=Spirit
TTITLE10=In A Street Full of Rain
TTITLE11=Air
TTITLE12=Oh Bonny`Doone
TTITLE13=Woman Taken in Adultery
TTITLE14=For NY 9/11/01
TTITLE15=Pretty As Ever
TTITLE16=The Departing of A Dream Vol.4
TTITLE17=Moon Gone Down
TTITLE18=Peace
EXTD=
EXTT0=
EXTT1=
EXTT2=
EXTT3=
EXTT4=
EXTT5=
EXTT6=
EXTT7=
EXTT8=
EXTT9=
EXTT10=
EXTT11=
EXTT12=
EXTT13=
EXTT14=
EXTT15=
EXTT16=
EXTT17=
EXTT18=
PLAYORDER=
